#define icon_width 64
#define icon_height 64
static unsigned char icon_bits[] = {
   0x00, 0x00, 0x00, 0x00, 0x00, 0x00, 0x00, 0x00, 0x00, 0x00, 0x00, 0x00,
   0x00, 0x00, 0x00, 0x00, 0x00, 0x00, 0x00, 0x00, 0x00, 0x00, 0x00, 0x00,
   0x00, 0x00, 0x00, 0x00, 0x00, 0x00, 0x00, 0x00, 0x00, 0x00, 0x00, 0x00,
   0x00, 0x00, 0x00, 0x00, 0x00, 0x00, 0x00, 0x00, 0x00, 0x00, 0x00, 0x00,
   0x00, 0x00, 0x00, 0x00, 0x55, 0x55, 0x55, 0x01, 0x00, 0x00, 0x00, 0xe0,
   0xff, 0xff, 0xff, 0x03, 0x00, 0x00, 0x00, 0xe0, 0xff, 0xff, 0xff, 0x01,
   0x00, 0x00, 0x00, 0xe0, 0xff, 0xff, 0xff, 0x01, 0x00, 0x00, 0x00, 0xe0,
   0xff, 0xff, 0xff, 0x05, 0x00, 0x00, 0x00, 0xe0, 0xff, 0xff, 0xff, 0x01,
   0x00, 0x00, 0x00, 0xe0, 0xff, 0xff, 0xff, 0x01, 0x00, 0x00, 0x00, 0xe0,
   0xff, 0xff, 0xff, 0x01, 0x00, 0x00, 0x00, 0xe0, 0x0f, 0x00, 0x00, 0x00,
   0x00, 0x00, 0x00, 0xe0, 0x0f, 0x00, 0x00, 0x00, 0x00, 0x00, 0x00, 0xe0,
   0x2f, 0x00, 0x00, 0x00, 0x00, 0x00, 0x00, 0xe0, 0x0f, 0x00, 0x00, 0x00,
   0x00, 0x00, 0x00, 0xe0, 0x0f, 0x00, 0x00, 0x00, 0x00, 0x00, 0x00, 0xe0,
   0x1f, 0x00, 0x00, 0x00, 0x00, 0x00, 0x00, 0xe0, 0x0f, 0x00, 0x00, 0x00,
   0x00, 0x00, 0x00, 0xe0, 0x0f, 0x00, 0x00, 0x00, 0x00, 0x00, 0x00, 0xe0,
   0x2f, 0x00, 0x00, 0x00, 0x00, 0x00, 0x00, 0xe0, 0x0f, 0x00, 0x00, 0x00,
   0x00, 0x00, 0x00, 0xe0, 0x0f, 0x00, 0x00, 0x00, 0x00, 0x00, 0x00, 0xe0,
   0x1f, 0x00, 0x00, 0x00, 0x00, 0x00, 0x00, 0xe0, 0x0f, 0x00, 0x00, 0x00,
   0x40, 0x55, 0x55, 0xe5, 0x0f, 0x00, 0x00, 0x00, 0xf0, 0xff, 0xff, 0xff,
   0x2f, 0x00, 0x00, 0x00, 0xf0, 0xff, 0xff, 0xff, 0x0f, 0x00, 0x00, 0x00,
   0xf0, 0xff, 0xff, 0xff, 0x0f, 0x00, 0x00, 0x00, 0xf0, 0xff, 0xff, 0xff,
   0x1f, 0x00, 0x00, 0x00, 0xf0, 0xff, 0xff, 0xff, 0x0f, 0x00, 0x00, 0x00,
   0xf0, 0xff, 0xff, 0xff, 0x0f, 0x00, 0x00, 0x00, 0xf0, 0xff, 0xff, 0xff,
   0x2f, 0x00, 0x00, 0x00, 0x00, 0x00, 0x00, 0xe0, 0x0f, 0x00, 0x00, 0x00,
   0x00, 0x00, 0x00, 0xe0, 0x0f, 0x00, 0x00, 0x00, 0x00, 0x00, 0x00, 0xe0,
   0x1f, 0x00, 0x00, 0x00, 0x00, 0x00, 0x00, 0xe0, 0x0f, 0x00, 0x00, 0x00,
   0x00, 0x00, 0x00, 0xe0, 0x0f, 0x00, 0x00, 0x00, 0x00, 0x00, 0x00, 0xe0,
   0x2f, 0x00, 0x00, 0x00, 0x00, 0x00, 0x00, 0xe0, 0x0f, 0x00, 0x00, 0x00,
   0x00, 0x00, 0x00, 0xe0, 0x0f, 0x00, 0x00, 0x00, 0x00, 0x00, 0x00, 0xe0,
   0x1f, 0x00, 0x00, 0x00, 0x00, 0x00, 0x00, 0xe0, 0x0f, 0x00, 0x00, 0x00,
   0x00, 0x00, 0x00, 0xe0, 0x0f, 0x00, 0x00, 0x00, 0x00, 0x00, 0x00, 0xe0,
   0x2f, 0x00, 0x00, 0x00, 0x00, 0x00, 0x00, 0xe0, 0x0f, 0x00, 0x00, 0x00,
   0x00, 0x00, 0x00, 0xe0, 0xaf, 0xaa, 0x0a, 0x00, 0x00, 0x00, 0x00, 0xe0,
   0xff, 0xff, 0xff, 0x01, 0x00, 0x00, 0x00, 0xe0, 0xff, 0xff, 0xff, 0x01,
   0x00, 0x00, 0x00, 0xe0, 0xff, 0xff, 0xff, 0x01, 0x00, 0x00, 0x00, 0xe0,
   0xff, 0xff, 0xff, 0x01, 0x00, 0x00, 0x00, 0xe0, 0xff, 0xff, 0xff, 0x01,
   0x00, 0x00, 0x00, 0xe0, 0xff, 0xff, 0xff, 0x01, 0x00, 0x00, 0x00, 0xe0,
   0xff, 0xff, 0xff, 0x01, 0x00, 0x00, 0x00, 0x00, 0x00, 0x00, 0x00, 0x00,
   0x00, 0x00, 0x00, 0x00, 0x00, 0x00, 0x00, 0x00, 0x00, 0x00, 0x00, 0x00,
   0x00, 0x00, 0x00, 0x00, 0x00, 0x00, 0x00, 0x00, 0x00, 0x00, 0x00, 0x00,
   0x00, 0x00, 0x00, 0x00, 0x00, 0x00, 0x00, 0x00, 0x00, 0x00, 0x00, 0x00,
   0x00, 0x00, 0x00, 0x00, 0x00, 0x00, 0x00, 0x00, 0x00, 0x00, 0x00, 0x00,
   0x00, 0x00, 0x00, 0x00, 0x00, 0x00, 0x00, 0x00 };
